<?xml version="1.0" encoding="UTF-8"?>
<svg id="Layer_4" xmlns="http://www.w3.org/2000/svg" viewBox="0 0 1920 1920">
  <defs>
    <style>
      .cls-1 {
        fill: #fff;
        stroke: #fff;
        stroke-miterlimit: 10;
      }

      .cls-2 {
        fill: none;
      }
    </style>
  </defs>
  <g>
    <path class="cls-2" d="M1585.1,362.59c-4.92-2.95-15.03-7.57-20.63-8.81-9.69-2.16-22.39-5.51-29.59,3.37-6.5,8.02,1.79,19.18,11.34,26.69,6.9,5.42,19.89,10.98,28.57,12.24,10.03,1.46,22.29,4.04,28.36-1.69,7.77-7.33-3.93-23.32-18.05-31.8Z"/>
    <path class="cls-2" d="M1598.66,415.13c-8.12,1.88-29.99-.83-29.99-.83,0,0-20.24-1.29-41.65-20.83-6.22-5.68-10.54-10.64-13.08-13.81-1.75-2.19-4.82-2.77-7.26-1.4-9.02,5.03-28.9,18.68-34.64,43.54-7.5,32.49-4.35,64.47,7.5,74.14,19.91,16.24,47.78,10.53,64.24,3.38,27.04-11.75,43.38-41.93,50.32-56.52,0,0,13.64-29.77,4.56-27.66Z"/>
    <path class="cls-1" d="M1668.1,372.14c-18.01,9.21-30.62,13.21-37.62,14.93,1.57,6.46,2.29,13.19,2.05,20.07,8.58-3.27,26.57-10.81,40-21.17,48.08-37.09,63.2-56.82,63.2-56.82,0,0-48.41,33.16-67.64,42.99Z"/>
    <path class="cls-1" d="M1630.49,387.07c-6.11-25.15-25.11-46.01-50.9-54.4-25.78-8.38-62.17-8.2-102.54,28.31l-124.12,141.61s-49.15,61.64-106.63,72.47c-57.48,10.83-38.32-64.14-38.32-64.14,0,0,24.99-66.64,74.14-91.63,49.15-24.99,55.81-10,55.81-10,0,0,17.49,14.99-10,58.31,0,0,26.66-4.17,42.48-69.14,15.83-64.98-60.81-30.82-92.46-14.99-31.65,15.83-89.62,68.49-120.25,107.04-34.76,43.75-106.09,111.48-138.34,122.47-25.88,8.82-34.88-1.4-40.27-16.68-13.41-38,29.67-96.8,74.78-127.86l68.31-49.98s6.66-15.83-8.33-12.5c-14.99,3.33-224.91,94.13-247.41,116.62-22.49,22.49,13.33,18.33,13.33,18.33,0,0,13.33,1.67,6.66,17.49-6.66,15.83-26.79,60.41-46.39,82.25-14.69,16.36-32.93,32.13-38.17,18.65-1.95-5-2.77-10.38-2.44-15.74l3.7-58.49s-3.57-17.95-15.66-3.54c-1.18,1.4-2.11,3-2.79,4.7l-21.63,54.43c-1.84,4.63-4.19,9.04-7.03,13.14-4.92,7.09-12.99,17.48-20.36,21.23-14.29,7.28-24.21-11.64-22.49-49.15,1.15-25.1,5.57-46.5,15.09-65.24,9.59-18.88,23.37-24.57,23.37-24.57,0,0,9.01-6.81,16.51,7.35,7.5,14.16,5,33.32,5,33.32,0,0,24.95-46.36,4.98-67.11-4.49-4.66-11.24-6.32-17.45-4.51-13.09,3.81-32.74,7.02-58.34,55.79-34.73,66.16-29.16,120.79-24.16,145.78,5,24.99,42.36,52.66,84.01-21.48l9.54-20.09c1-2.11,4.17-1.39,4.15.95-.1,8.47,1.65,18.95,9.81,23.95,0,0,29.94,14.99,68.26-30.82,31.61-37.8,69.46-119.76,81.74-147.29,2.67-5.97,7.37-10.81,13.28-13.62l55.76-26.53s-44.14,38.02-50.8,92.16,11.36,79.94,60.54,73.42c70.13-9.29,190.19-165.58,190.19-165.58,0,0-48.31,83.3,0,116.62,48.31,33.32,111.62-11.66,111.62-11.66,0,0,72.47-54.15,121.62-134.95,0,0-9.2,86.09,51.65,93.3,59.21,7.01,97-24.11,124.12-69.97,12.06-20.39,17.25-38.47,18.64-53.75.13-1.41.2-2.82.25-4.22.24-6.88-.48-13.62-2.05-20.07ZM1594.1,442.79c-6.93,14.6-23.27,44.78-50.32,56.52-16.46,7.15-44.33,12.86-64.24-3.38-11.85-9.66-14.99-41.65-7.5-74.14,5.74-24.86,25.62-38.5,34.64-43.54,2.44-1.36,5.52-.78,7.26,1.4,2.54,3.17,6.85,8.13,13.08,13.81,21.41,19.53,41.65,20.83,41.65,20.83,0,0,21.87,2.72,29.99.83,9.07-2.11-4.56,27.66-4.56,27.66ZM1603.15,394.39c-6.07,5.73-18.33,3.15-28.36,1.69-8.68-1.26-21.67-6.82-28.57-12.24-9.55-7.51-17.84-18.67-11.34-26.69,7.2-8.88,19.91-5.53,29.59-3.37,5.6,1.25,15.71,5.86,20.63,8.81,14.12,8.48,25.81,24.47,18.05,31.8Z"/>
  </g>
  <path class="cls-1" d="M1150.04,779.45c-23.71,10.4-86.57,35.01-109.19,42.92-2.79.97-5.88,0-7.57-2.43-8.31-11.93-31.36-40.24-49.06-49.44-19.03-9.89-74.56-16.93-120.17,7.19-45.61,24.13-44.6,58.34-42.61,81.85,1.99,23.51-9.02,108.53-9.02,108.53,0,0-51.2,499.49-76.31,565.54-9.57-2.93-19.37-39.14-28.01-79.75-13.85-65.1-55.36,32.76-56.73,77.92-.59,19.43,1.82,74.66,25.9,106.28,39.16,51.43,65.38-56.66,69.15-64.88,3.69,1.88,52.46,25.41,115.32-9.46,65.4-36.28,132.28-122.78,188.28-272.59,56-149.81,36.06-315.04,36.06-315.04,0,0-15.63-83.77-28.27-109.62,0,0,0,0,0-.01-.12-.15-5.6-7.11,7.88-14.67,13.19-7.39,92.69-42.12,97.83-44.37.18-.08.33-.17.51-.25,65.89-29.57,424.91-213.48,562.6-300.77-127.53,59.18-494.69,237.09-576.59,273.03ZM725.56,1584.33c-3.06,12.2-9.07,28.22-18.03,37.1-13.73,13.39-23.89-5.99-23.89-5.99,0,0-11.2-18.01-15.8-58.02-4.26-37.07,1.96-67.84,11.77-75.55,5.4-4.25,7.35,8.86,8.86,14.51,2.48,9.25,7.77,23.7,11,30.27,3.96,8.06,7.35,14.96,13.85,23.35l10.2,13.28c3.24,7.71,3.8,14.05,2.04,21.06ZM959.46,801.19c14.15,7.93,26.37,19.5,25.24,34.11-.78,10.11-41.47,20.25-61.53,20.05-75.45-.73-72.71-22.38-72.71-22.38-2.15-35.1,75.49-50.58,109.01-31.79ZM1033.67,1251.67s-39.09,154.73-115.25,242.27c-76.16,87.54-140.3,68.22-148.82,65.91-7.49-2.03-12.59-6.74-15.54-11.37-2.37-3.72-2.95-8.24-2.12-12.58,71.7-373.02,85.92-466.2,94.47-568.06,3.16-37.74,7.14-83.71,8.58-89.94,1.38-5.97,20.16,9.51,54.53,11.05,30.68,1.37,67.45-6.03,83.88-13.75,7.7-3.62,14.7,14.39,17.59,22.39,69.05,191,22.69,354.09,22.69,354.09Z"/>
  <path class="cls-1" d="M1218.39,963.86s34.16-63.07-7.88-73.2c0,0-33.41-7.51-67.19,63.82s-21.77,138.89-14.26,151.66c7.51,12.76,32.66,29.28,58.94-3.75,13.44-19.08,23.03-37.2,30.01-51.75,1.32-2.75,5.46-1.78,5.4,1.27-.16,8.2,2.09,19.42,6,26.21,0,0,40.38,31.05,65.11-54.55l-17.77-17.47s-14.42,46.74-25.68,51.62c-11.26,4.88-4.88-39.04-4.88-39.04l5.63-49.93s-4.5-24.78-19.9-2.25c-.62,1.55-16.89,57.43-34.49,80.38-4.63,6.04-9.45,12.09-17.02,12.86-8.52.86-18.54-6.15-19.81-28.68-2.38-42.13,7.51-64.57,7.51-64.57,0,0,8.66-28.07,20.98-42.62,9.05-10.68,21.43-12.56,27.07,1.33s2.25,38.66,2.25,38.66Z"/>
  <path class="cls-1" d="M1559.27,836.9s34.16-63.07-7.88-73.2c0,0-33.41-7.51-67.19,63.82s-21.77,138.89-14.26,151.66c7.51,12.76,32.66,29.28,58.94-3.75,13.44-19.08,23.03-37.2,30.01-51.75,1.32-2.75,5.46-1.78,5.4,1.27-.16,8.2,3.49,21.78,8.42,24.88,0,0,20.12,18.3,59.52-18.5l27.68-30.29,49.21-64.39-73.83,68.33s-26.07,26.96-43.35,25.77c-12.24-.84-4.88-39.04-4.88-39.04l5.63-49.93s-4.5-24.78-19.9-2.25c-.62,1.55-16.89,57.43-34.49,80.38-4.63,6.04-9.45,12.09-17.02,12.86-8.52.86-18.54-6.15-19.81-28.68-2.38-42.13,7.51-64.57,7.51-64.57,0,0,8.66-28.07,20.98-42.62,9.05-10.68,21.43-12.56,27.07,1.33,5.63,13.89,2.25,38.66,2.25,38.66Z"/>
  <path class="cls-1" d="M1275.13,1013.02l15.03-64.91c5.27-26.37,24.09-75.21,43.6-72.57,20.07,2.72,40.87,130.33,40.87,130.33,1.96-44.46,12.01-178.42,168.24-227.72l-46.15,52.34s-65.15,29.75-85.56,102.73c-10.18,36.4-17.79,78.32-16.44,91.21.64,6.14-3.02,21.58-9,23.12-2.69.69-10.57,1.45-13.65-.78-9.59-6.93-19.32-39.08-19.86-40.67-.34-1.02-9-35.6-15.33-60.9-3.36-13.42-11.27-17.77-13.84-14.15-9.04,12.77-19.86,59.02-28.54,92.52-3.75,14.47-19.37-10.55-19.37-10.55Z"/>
  <path class="cls-1" d="M184.26,748.68s39.11-169.92,75.52-182.06c36.41-12.14,25.62,148.34,25.62,148.34l-41.81,287.24-26.69,167.3s-5.65,26.45,7.02,28.1c7.73,1.01,12.24-14.08,14.94-35.65s51.13-225.81,51.13-225.81c0,0,55.72-226.36,66.88-260.28,0,0,60.69-186.1,86.31-190.15,25.62-4.05-8.09,187.45-8.09,187.45,0,0-2.7,48.55,6.74,51.25s52.59-138.9,52.59-138.9c0,0,57.27-136.22,66.32-153.52,0,0,37.52-74.39,56.4-68.99,18.88,5.39,10.79,74.17,10.79,74.17l-28.3,278.66s-17.86,164.4-5.02,213.65c0,0,15.79,68.69,88.61,21.49,72.82-47.2,137.55-213.07,137.55-213.07,0,0-71.28,111.6-95.75,141.24-23.83,28.87-38.6,58.92-74.96,58.61-24.26-.2-25.39-33.15-25.39-73.39,0-55.7,53.91-470.96,53.91-470.96,0,0,24.86-184.13-57.4-105.92-82.26,78.22-132.16,218.47-132.16,218.47,0,0,29.67-176.66-13.49-159.13-43.15,17.53-151.04,293.99-151.04,293.99,0,0,8.09-213.07-32.37-173.96-40.46,39.11-60.09,82.91-77.06,131.6-13.83,39.69-30.83,150.24-30.83,150.24Z"/>
</svg>