<?xml version="1.0" encoding="UTF-8"?>
<svg id="Layer_1" xmlns="http://www.w3.org/2000/svg" viewBox="0 0 1920 1920">
  <path d="M435.88,834s47.76-207.5,92.22-222.32,31.29,181.15,31.29,181.15l-51.05,350.77-32.6,204.3s-6.9,32.3,8.57,34.31c9.44,1.23,14.95-17.19,18.24-43.54,3.29-26.35,62.44-275.75,62.44-275.75,0,0,68.05-276.42,81.67-317.84,0,0,74.11-227.26,105.39-232.2,31.29-4.94-9.88,228.9-9.88,228.9,0,0-3.29,59.28,8.23,62.58,11.53,3.29,64.22-169.62,64.22-169.62,0,0,69.94-166.34,80.99-187.47,0,0,45.82-90.84,68.87-84.25s13.17,90.57,13.17,90.57l-34.56,340.29s-21.81,200.75-6.13,260.89c0,0,27.66,95.1,108.21,26.24,63.71-54.47,46.8-233.87,46.8-233.87,0,0-3.35,55.21-12.68,95.74-10.57,45.91-46.15,109.81-76.23,109.47-31.42-.35-29.38-27.97-29.38-77.11,0-68.02,65.84-575.11,65.84-575.11,0,0,30.36-224.85-70.09-129.34-100.45,95.51-161.39,266.78-161.39,266.78,0,0,36.23-215.73-16.47-194.32-52.7,21.41-184.44,359-184.44,359,0,0,9.88-260.19-39.52-212.44-49.4,47.76-73.38,101.24-94.1,160.71-16.89,48.46-37.64,183.47-37.64,183.47Z"/>
  <path d="M1425.32,703.82c-29.73,11.39-32.43,12.14-60.13,22.18-3.41,1.24-7.23.07-9.34-2.88-10.38-14.55-39.12-49.05-61.01-60.12-23.53-11.9-91.91-19.8-147.67,10.5-55.75,30.29-54.04,72.34-51.27,101.23,2.77,28.89-9.6,133.57-9.6,133.57,0,0-56.09,614.88-86.06,696.44-11.81-3.48-24.36-47.86-35.54-97.68-17.92-79.86-67.62,41.04-68.69,96.6-.46,23.9,3.26,91.77,33.31,130.33,48.86,62.7,79.61-70.57,84.14-80.72,4.57,2.26,64.85,30.53,141.67-13.21,79.92-45.51,160.96-152.79,227.77-337.77,66.8-184.98,40.01-387.87,40.01-387.87,0,0-20.37-102.79-36.27-134.4,0,0,0,0,0-.01-.15-.18-6.98-8.67,9.49-18.15,16.11-9.27,23.12-14.86,30.11-18.95.21-.12,26.05-17.66,34.89-23.97,32.1-22.89,45.63-31.84,107.81-91.79-55.82,31.37-94.81,57.98-143.63,76.67ZM987.97,1667.26c-3.59,15.05-10.77,34.82-21.66,45.86-16.7,16.65-29.46-7.04-29.46-7.04,0,0-14.02-22-20.22-71.12-5.75-45.53,1.48-83.44,13.44-93.06,6.59-5.3,9.15,10.79,11.09,17.71,3.17,11.34,9.88,29.03,13.94,37.07,4.99,9.86,9.24,18.29,17.35,28.52l12.72,16.18c4.09,9.44,4.87,17.23,2.8,25.87ZM1264.82,701.08c17.51,9.56,32.69,23.61,31.5,41.6-.82,12.44-50.71,25.46-75.39,25.5-92.79.13-89.71-26.52-89.71-26.52-3.12-43.13,92.13-63.23,133.6-40.58ZM1362.25,1253.98s-45.94,190.79-138.39,299.48c-92.45,108.69-171.58,85.81-182.09,83.09-9.24-2.4-15.58-8.12-19.26-13.77-2.96-4.55-3.74-10.09-2.78-15.43,83.04-459.66,99.25-574.43,108.35-699.79,3.37-46.45,7.62-103.03,9.31-110.71,1.62-7.36,24.92,11.42,67.2,12.84,37.74,1.26,82.86-8.34,102.95-18.07,9.42-4.56,18.27,17.49,21.94,27.29,87.53,233.91,32.76,435.08,32.76,435.08Z"/>
</svg>